<svg id="グループ_119" data-name="グループ 119" xmlns="http://www.w3.org/2000/svg" width="60" height="93.7" viewBox="0 0 60 93.7">
  <g id="ellipse_2_" transform="translate(93 369)">
    <g id="グループ_118" data-name="グループ 118">
      <path id="パス_2676" data-name="パス 2676" d="M-63-360a4.481,4.481,0,0,1-4.5-4.5A4.481,4.481,0,0,1-63-369a4.481,4.481,0,0,1,4.5,4.5A4.481,4.481,0,0,1-63-360Zm0-6a1.538,1.538,0,0,0-1.5,1.5A1.538,1.538,0,0,0-63-363a1.538,1.538,0,0,0,1.5-1.5A1.538,1.538,0,0,0-63-366Z" fill="#00a9de"/>
    </g>
  </g>
  <path id="パス_2677" data-name="パス 2677" d="M58,15.7H50v-5H11v5H0v3H3V42.2A27.488,27.488,0,0,0,20,67.6v7.6a19.923,19.923,0,0,0-9.4,15.5H8v3H53v-3H50.4a19.7,19.7,0,0,0-3.9-10.4l3.2-3.2,2.5,2.5,1.4-1.4-6.4-6.4-1.4,1.4,2.5,2.5-3.1,3.1A23.659,23.659,0,0,0,41,75.3V67.7A27.488,27.488,0,0,0,58,42.3V18.7h2v-3H58Zm-44-2H47v1H14ZM43.1,80.8a9.549,9.549,0,0,1,1.2,1.6,17.1,17.1,0,0,1,3.1,8.3H13.6a16.967,16.967,0,0,1,29.5-9.9ZM30.5,69.7h0A26.675,26.675,0,0,0,38,68.6v5a20.463,20.463,0,0,0-7.5-1.5A18.605,18.605,0,0,0,23,73.6v-5A26.675,26.675,0,0,0,30.5,69.7ZM55,42.2A24.447,24.447,0,0,1,41,64.3a18.769,18.769,0,0,1-3,1.2,27.009,27.009,0,0,1-7,1.2V59.5a6.336,6.336,0,0,0,5.5-6.1v-.1c-.2-3-3.7-8.2-6.1-11.5-.4-.4-.9-.4-1.1,0-2.2,3.4-5.8,8.3-5.8,11.5A6.174,6.174,0,0,0,29,59.4v7.2a23.592,23.592,0,0,1-6-1.1,18.77,18.77,0,0,1-3-1.2A24.447,24.447,0,0,1,6,42.2V18.7H55Z" fill="#00a9de"/>
</svg>
