<svg id="Campvibes_ベクターアート" data-name="Campvibes ベクターアート" xmlns="http://www.w3.org/2000/svg" width="186.4" height="245.3" viewBox="0 0 186.4 245.3">
  <g id="line_1_">
    <rect id="長方形_12736" data-name="長方形 12736" width="6" height="125.3" transform="translate(81.993 31.861) rotate(-26.565)" fill="#00a9de"/>
  </g>
  <g id="line-2_1_">
    <rect id="長方形_12737" data-name="長方形 12737" width="125.3" height="6" transform="translate(43.175 141.258) rotate(-63.43)" fill="#00a9de"/>
  </g>
  <g id="line-3_1_">
    <rect id="長方形_12738" data-name="長方形 12738" width="121.4" height="6" transform="translate(31.3 139.6)" fill="#00a9de"/>
  </g>
  <path id="tent_blue_triangle_1_" d="M92.9,104.3,112,142.5H73.8Z" fill="#00a9de"/>
  <g id="moon_subtraction__1_">
    <path id="パス_2639" data-name="パス 2639" d="M52.1,29.9h0A14.681,14.681,0,0,1,37.4,15.2,14.935,14.935,0,0,1,47,1.4L51,0l-.6,4.2a9.627,9.627,0,0,0,8.1,11,7.569,7.569,0,0,0,1.5.1h0a9.191,9.191,0,0,0,3.3-.6l4-1.5-.7,4.2A14.793,14.793,0,0,1,52.1,29.9ZM45.5,8.2a9.6,9.6,0,0,0-3,7,9.667,9.667,0,0,0,17.9,5.1H60a16.352,16.352,0,0,1-2.2-.2A14.437,14.437,0,0,1,45.5,8.2Z" fill="#00a9de"/>
  </g>
  <g id="path_3_">
    <path id="パス_2640" data-name="パス 2640" d="M182.9,66.1l-8.2-7.9-8.3,7.9-3.5-3.7,11.8-11.1,11.7,11.1Z" fill="#00a9de"/>
  </g>
  <g id="path-2_3_">
    <path id="パス_2641" data-name="パス 2641" d="M182.9,77.3l-8.2-7.8-8.3,7.8-3.5-3.6,11.8-11.1,11.7,11.1Z" fill="#00a9de"/>
  </g>
  <g id="path-3_3_">
    <path id="パス_2642" data-name="パス 2642" d="M182.9,88.6l-8.2-7.8-8.3,7.8L162.9,85l11.8-11.1L186.4,85Z" fill="#00a9de"/>
  </g>
  <g id="path-4_3_">
    <path id="パス_2643" data-name="パス 2643" d="M182.9,99.9l-8.2-7.8-8.3,7.8-3.5-3.6,11.8-11.1,11.7,11.1Z" fill="#00a9de"/>
  </g>
  <g id="path-5_3_">
    <path id="パス_2644" data-name="パス 2644" d="M182.9,111.2l-8.2-7.8-8.3,7.8-3.5-3.6,11.8-11.1,11.7,11.1Z" fill="#00a9de"/>
  </g>
  <g id="line-4_3_">
    <rect id="長方形_12739" data-name="長方形 12739" width="5" height="69.3" transform="translate(172.2 54.6)" fill="#00a9de"/>
  </g>
  <g id="path-6_3_">
    <path id="パス_2645" data-name="パス 2645" d="M155,66.1l-8.3-7.9-8.3,7.9L135,62.4l11.7-11.1,11.7,11.1Z" fill="#00a9de"/>
  </g>
  <g id="path-7_3_">
    <path id="パス_2646" data-name="パス 2646" d="M155,77.3l-8.3-7.8-8.3,7.8L135,73.7l11.7-11.1,11.7,11.1Z" fill="#00a9de"/>
  </g>
  <g id="path-8_3_">
    <path id="パス_2647" data-name="パス 2647" d="M155,88.6l-8.3-7.8-8.3,7.8L135,85l11.7-11.1L158.4,85Z" fill="#00a9de"/>
  </g>
  <g id="path-9_3_">
    <path id="パス_2648" data-name="パス 2648" d="M155,99.9l-8.3-7.8-8.3,7.8L135,96.3l11.7-11.1,11.7,11.1Z" fill="#00a9de"/>
  </g>
  <g id="path-10_3_">
    <path id="パス_2649" data-name="パス 2649" d="M155,111.2l-8.3-7.8-8.3,7.8-3.4-3.6,11.7-11.1,11.7,11.1Z" fill="#00a9de"/>
  </g>
  <g id="line-5_3_">
    <rect id="長方形_12740" data-name="長方形 12740" width="5" height="69.3" transform="translate(144.2 54.6)" fill="#00a9de"/>
  </g>
  <g id="path_2_">
    <path id="パス_2650" data-name="パス 2650" d="M47.9,66.1l-8.2-7.9-8.3,7.9-3.5-3.7L39.7,51.3,51.4,62.4Z" fill="#00a9de"/>
  </g>
  <g id="path-2_2_">
    <path id="パス_2651" data-name="パス 2651" d="M47.9,77.3l-8.2-7.8-8.3,7.8-3.5-3.6L39.7,62.6,51.4,73.7Z" fill="#00a9de"/>
  </g>
  <g id="path-3_2_">
    <path id="パス_2652" data-name="パス 2652" d="M47.9,88.6l-8.2-7.8-8.3,7.8L27.9,85,39.7,73.9,51.4,85Z" fill="#00a9de"/>
  </g>
  <g id="path-4_2_">
    <path id="パス_2653" data-name="パス 2653" d="M47.9,99.9l-8.2-7.8-8.3,7.8-3.5-3.6L39.7,85.2,51.4,96.3Z" fill="#00a9de"/>
  </g>
  <g id="path-5_2_">
    <path id="パス_2654" data-name="パス 2654" d="M47.9,111.2l-8.2-7.8-8.3,7.8-3.5-3.6L39.7,96.5l11.7,11.1Z" fill="#00a9de"/>
  </g>
  <g id="line-4_2_">
    <rect id="長方形_12741" data-name="長方形 12741" width="5" height="69.3" transform="translate(37.2 54.6)" fill="#00a9de"/>
  </g>
  <g id="path-6_2_">
    <path id="パス_2655" data-name="パス 2655" d="M20,66.1l-8.3-7.9L3.4,66.1,0,62.4,11.7,51.3,23.4,62.4Z" fill="#00a9de"/>
  </g>
  <g id="path-7_2_">
    <path id="パス_2656" data-name="パス 2656" d="M20,77.3l-8.3-7.8L3.4,77.3,0,73.7,11.7,62.6,23.4,73.7Z" fill="#00a9de"/>
  </g>
  <g id="path-8_2_">
    <path id="パス_2657" data-name="パス 2657" d="M20,88.6l-8.3-7.8L3.4,88.6,0,85,11.7,73.9,23.4,85Z" fill="#00a9de"/>
  </g>
  <g id="path-9_2_">
    <path id="パス_2658" data-name="パス 2658" d="M20,99.9l-8.3-7.8L3.4,99.9,0,96.3,11.7,85.2,23.4,96.3Z" fill="#00a9de"/>
  </g>
  <g id="path-10_2_">
    <path id="パス_2659" data-name="パス 2659" d="M20,111.2l-8.3-7.8-8.3,7.8L0,107.6,11.7,96.5l11.7,11.1Z" fill="#00a9de"/>
  </g>
  <g id="line-5_2_">
    <rect id="長方形_12742" data-name="長方形 12742" width="5" height="69.3" transform="translate(9.2 54.6)" fill="#00a9de"/>
  </g>
  <path id="flame_1_" d="M92.7,158.1c-.4-.4-1.1-.4-1.3,0-2.6,4.1-6.7,10.2-6.7,14.1a7.512,7.512,0,0,0,7.5,7.6h.1a7.512,7.512,0,0,0,7.6-7.5v-.1C99.6,168.5,95.5,162.2,92.7,158.1ZM92,175.7a3.294,3.294,0,0,1-3.3-3.1v-.1a3.123,3.123,0,0,1,2.9-3.3H92a3.294,3.294,0,0,1,3.3,3.1v.1A3.82,3.82,0,0,1,92,175.7Z" fill="#00a9de"/>
  <g id="logs_1_" transform="translate(457.179 -85.623)">
    <g id="line-8_1_">
      <rect id="長方形_12743" data-name="長方形 12743" width="6" height="31.3" transform="translate(-380.622 270.159) rotate(-68.199)" fill="#00a9de"/>
    </g>
    <g id="line-9_1_">
      <rect id="長方形_12744" data-name="長方形 12744" width="31.3" height="6" transform="matrix(0.919, -0.394, 0.394, 0.919, -380.535, 276.633)" fill="#00a9de"/>
    </g>
  </g>
  <g id="グループ_106" data-name="グループ 106">
    <path id="パス_2660" data-name="パス 2660" d="M49.7,212.7a3.693,3.693,0,0,1,2.7-1.1,3.875,3.875,0,0,1,3.2,1.4,2.66,2.66,0,0,1,.6,1.6H54.4a3.919,3.919,0,0,0-.4-.9,1.678,1.678,0,0,0-1.4-.6,1.763,1.763,0,0,0-1.5.8,4.423,4.423,0,0,0-.6,2.2,3.593,3.593,0,0,0,.6,2.2,1.8,1.8,0,0,0,1.5.7,1.678,1.678,0,0,0,1.4-.6,2.321,2.321,0,0,0,.4-1h1.8a3.963,3.963,0,0,1-1.2,2.3,3.583,3.583,0,0,1-2.4.9,3.7,3.7,0,0,1-2.9-1.2,4.859,4.859,0,0,1-1.1-3.3A4.4,4.4,0,0,1,49.7,212.7Z" fill="#00a9de"/>
    <path id="パス_2661" data-name="パス 2661" d="M62.5,211.8h2l3.1,8.6h-2l-.6-1.8H61.8l-.6,1.8H59.3Zm-.2,5.4h2.2l-1.1-3.4Z" fill="#00a9de"/>
    <path id="パス_2662" data-name="パス 2662" d="M76.8,211.8h2.6v8.6H77.7v-7.2l-1.6,7.2H74.3l-1.6-7.2v7.2H71v-8.6h2.6l1.6,6.8Z" fill="#00a9de"/>
    <path id="パス_2663" data-name="パス 2663" d="M89.2,216.7a3.4,3.4,0,0,1-2.2.6H85.2v3.1H83.4v-8.6h3.7a2.59,2.59,0,0,1,2.8,2.8A2.051,2.051,0,0,1,89.2,216.7Zm-1.3-3.1a1.327,1.327,0,0,0-1-.3H85.3v2.5h1.6a1.689,1.689,0,0,0,1-.3c.3-.2.3-.5.3-1A1.078,1.078,0,0,0,87.9,213.6Z" fill="#00a9de"/>
    <path id="パス_2664" data-name="パス 2664" d="M98.9,211.8h1.9l-2.9,8.6H96.2l-2.9-8.6h1.9l1.9,6.6Z" fill="#00a9de"/>
    <path id="パス_2665" data-name="パス 2665" d="M105.9,220.5h-1.8v-8.6h1.8Z" fill="#00a9de"/>
    <path id="パス_2666" data-name="パス 2666" d="M116.4,212.8a2.01,2.01,0,0,1,.4,1.3,1.844,1.844,0,0,1-.4,1.3c-.1.2-.4.3-.7.5a2,2,0,0,1,1,.8,2.768,2.768,0,0,1,.3,1.3,2.3,2.3,0,0,1-.4,1.4,4.349,4.349,0,0,1-.6.7,1.777,1.777,0,0,1-1,.4,4.868,4.868,0,0,1-1.2.1H110V212h4.2A2.259,2.259,0,0,1,116.4,212.8Zm-4.7.5v1.9h2.1a2,2,0,0,0,.9-.2.894.894,0,0,0,.4-.8.792.792,0,0,0-.5-.8,3.083,3.083,0,0,0-1-.1h-1.9Zm0,3.4V219h2.1a2,2,0,0,0,.9-.2,1.059,1.059,0,0,0,.6-1.1.875.875,0,0,0-.6-.9,2.219,2.219,0,0,0-.9-.1Z" fill="#00a9de"/>
    <path id="パス_2667" data-name="パス 2667" d="M127.4,213.4h-4.6v1.8H127v1.5h-4.2v2.2h4.8v1.6h-6.5v-8.6h6.3v1.5Z" fill="#00a9de"/>
    <path id="パス_2668" data-name="パス 2668" d="M132.8,217.8a4.649,4.649,0,0,0,.3.9,1.721,1.721,0,0,0,1.5.5,3.749,3.749,0,0,0,1.1-.1,1.053,1.053,0,0,0,.8-1,.755.755,0,0,0-.4-.7,3.374,3.374,0,0,0-1.2-.4l-.9-.2a4.424,4.424,0,0,1-1.9-.7,2.082,2.082,0,0,1-.9-1.9,2.323,2.323,0,0,1,.9-1.9,3.742,3.742,0,0,1,2.5-.8,3.986,3.986,0,0,1,2.4.7,2.393,2.393,0,0,1,1,2.1h-1.7a1.23,1.23,0,0,0-.7-1.1,3.087,3.087,0,0,0-1.1-.2,1.609,1.609,0,0,0-1.1.3.812.812,0,0,0-.4.8.755.755,0,0,0,.4.7c.2.1.6.2,1.1.4l1.5.4a5.711,5.711,0,0,1,1.5.6,2.2,2.2,0,0,1,.8,1.8,2.665,2.665,0,0,1-.9,2,3.537,3.537,0,0,1-2.6.8,4.551,4.551,0,0,1-2.7-.8,2.393,2.393,0,0,1-1-2.1h1.7Z" fill="#00a9de"/>
  </g>
  <g id="line-10_1_">
    <rect id="長方形_12745" data-name="長方形 12745" width="42.6" height="3" transform="translate(71.2 242.3)" fill="#00a9de"/>
  </g>
</svg>
